<?xml version="1.0" encoding="UTF-8"?><!DOCTYPE svg PUBLIC "-//W3C//DTD SVG 1.1//EN" "http://www.w3.org/Graphics/SVG/1.1/DTD/svg11.dtd"><svg xmlns="http://www.w3.org/2000/svg" xmlns:xlink="http://www.w3.org/1999/xlink"><symbol id="uiza-captions-off"><g fill="#FFF" fill-rule="evenodd" fill-opacity=".5"><path d="M8.891 10.004c-.039.535-.237.955-.596 1.262-.358.307-.83.46-1.417.46-.64 0-1.145-.214-1.513-.642-.367-.429-.551-1.017-.551-1.765v-.303c0-.478.085-.898.254-1.262.17-.364.412-.643.727-.837a2.04 2.04 0 011.097-.292c.577 0 1.042.154 1.395.46.352.307.556.738.611 1.293h-1.03c-.026-.32-.115-.553-.27-.697-.155-.145-.39-.217-.706-.217-.343 0-.6.122-.771.367-.17.244-.258.623-.263 1.137v.375c0 .536.082.928.246 1.176.164.248.422.372.774.372.319 0 .556-.072.713-.217.157-.144.247-.367.27-.67h1.03zm4.603 0c-.039.535-.238.955-.596 1.262-.358.307-.83.46-1.417.46-.641 0-1.145-.214-1.513-.642-.367-.429-.551-1.017-.551-1.765v-.303c0-.478.085-.898.254-1.262.17-.364.412-.643.726-.837a2.043 2.043 0 011.098-.292c.577 0 1.042.154 1.394.46.353.307.557.738.612 1.293h-1.03c-.026-.32-.116-.553-.27-.697-.155-.145-.39-.217-.706-.217-.344 0-.6.122-.771.367-.17.244-.258.623-.263 1.137v.375c0 .536.082.928.246 1.176.163.248.422.372.774.372.318 0 .556-.072.713-.217.157-.144.247-.367.27-.67h1.03z" fill-opacity=".35"/><path d="M1.875 3.75v10.5h14.25V3.75H1.875zM.75 2.625h16.5v12.75H.75V2.625z" fill-rule="nonzero"/></g></symbol><symbol id="uiza-captions-on"><g fill="#FFF" fill-rule="evenodd"><path d="M8.891 10.004c-.039.535-.237.955-.596 1.262-.358.307-.83.46-1.417.46-.64 0-1.145-.214-1.513-.642-.367-.429-.551-1.017-.551-1.765v-.303c0-.478.085-.898.254-1.262.17-.364.412-.643.727-.837a2.04 2.04 0 011.097-.292c.577 0 1.042.154 1.395.46.352.307.556.738.611 1.293h-1.03c-.026-.32-.115-.553-.27-.697-.155-.145-.39-.217-.706-.217-.343 0-.6.122-.771.367-.17.244-.258.623-.263 1.137v.375c0 .536.082.928.246 1.176.164.248.422.372.774.372.319 0 .556-.072.713-.217.157-.144.247-.367.27-.67h1.03zm4.603 0c-.039.535-.238.955-.596 1.262-.358.307-.83.46-1.417.46-.641 0-1.145-.214-1.513-.642-.367-.429-.551-1.017-.551-1.765v-.303c0-.478.085-.898.254-1.262.17-.364.412-.643.726-.837a2.043 2.043 0 011.098-.292c.577 0 1.042.154 1.394.46.353.307.557.738.612 1.293h-1.03c-.026-.32-.116-.553-.27-.697-.155-.145-.39-.217-.706-.217-.344 0-.6.122-.771.367-.17.244-.258.623-.263 1.137v.375c0 .536.082.928.246 1.176.163.248.422.372.774.372.318 0 .556-.072.713-.217.157-.144.247-.367.27-.67h1.03z" fill-opacity=".85"/><path d="M1.875 3.75v10.5h14.25V3.75H1.875zM.75 2.625h16.5v12.75H.75V2.625z" fill-rule="nonzero"/></g></symbol><symbol id="uiza-enter-fullscreen"><g fill="none" fill-rule="evenodd"><path d="M0 0h18v18H0z"/><path d="M10.926 3l1.562 1.562-1.963 1.949.964.964 1.95-1.963L15 7.074V3h-4.074zM7.074 15l-1.562-1.562 1.963-1.949-.964-.964-1.95 1.963L3 10.926V15h4.074z" fill="#FFF" fill-rule="nonzero"/></g></symbol><symbol id="uiza-exit-fullscreen"><g fill="none" fill-rule="evenodd"><path d="M0 0h18v18H0z"/><path d="M3.403 10.5l1.57 1.57L3 14.03l.97.97 1.96-1.973 1.57 1.57V10.5H3.403zm11.194-3l-1.57-1.57L15 3.97 14.03 3l-1.96 1.973-1.57-1.57V7.5h4.097z" fill="#FFF" fill-rule="nonzero"/></g></symbol><symbol id="uiza-fast-forward"><g fill="none" fill-rule="evenodd"><path d="M0 0h18v18H0z"/><path d="M3.375 15l8.5-6-8.5-6v12zm9-10.875v9.75h1.875v-9.75h-1.875z" fill="#FFF" fill-rule="nonzero"/></g></symbol><symbol id="uiza-muted"><g fill="none" fill-rule="evenodd"><path d="M0 0h18v18H0z"/><path fill="#FFF" fill-rule="nonzero" d="M1.875 6.75v4.5h3L8.625 15V3l-3.75 3.75zm13.618-.53l1.06 1.06-1.856 1.856 1.856 1.857-1.06 1.06-1.857-1.856-1.856 1.856-1.06-1.06 1.856-1.857L10.72 7.28l1.06-1.06 1.856 1.856z"/></g></symbol><symbol id="uiza-pause"><g fill="none" fill-rule="evenodd"><path d="M0 0h18v18H0z"/><path d="M3.75 15H7.5V3H3.75v12zM10.5 3v12h3.75V3H10.5z" fill="#FFF" fill-rule="nonzero"/></g></symbol><symbol id="uiza-pip"><path d="M6.75 6.5H1.125v7.875H15.75V8.75h1.125v6.75H0V5.375h6.75V6.5zm1.125 1.125H18V2H7.875v5.625zM2.988 8.75v1.125h1.899l-2.25 2.25.738.738 2.25-2.25v1.899H6.75V8.75"/></symbol><symbol id="uiza-play"><g fill="none" fill-rule="evenodd"><path d="M0 0h18v18H0z"/><path fill="#FFF" fill-rule="nonzero" d="M5 15l8.5-6L5 3z"/></g></symbol><symbol id="uiza-restart"><g fill="none" fill-rule="evenodd"><path d="M1 0h16.615v16.615H1z"/><path d="M6.354 3.905l3.213 3.212V4.716c1.213 0 2.354.472 3.212 1.33A4.514 4.514 0 0114.11 9.26a4.514 4.514 0 01-1.33 3.213 4.514 4.514 0 01-3.213 1.33 4.514 4.514 0 01-3.213-1.33 4.514 4.514 0 01-1.32-3.515l-1.511-.1a6.058 6.058 0 106.044-5.654V.692L6.354 3.904z" fill="#FFF" fill-rule="nonzero"/></g></symbol><symbol id="uiza-rewind"><g fill="none" fill-rule="evenodd"><path d="M18 0H0v18h18z"/><path d="M15 15L6.5 9 15 3v12zM4.875 3v12H3V3h1.875z" fill="#FFF" fill-rule="nonzero"/></g></symbol><symbol id="uiza-settings"><g fill="none" fill-rule="evenodd"><path d="M0 0h18v18H0z"/><path d="M13.95 9.653c.027-.213.047-.426.047-.653 0-.227-.02-.44-.046-.653l1.406-1.1c.126-.1.16-.28.08-.426l-1.333-2.305a.335.335 0 00-.407-.147l-1.659.666a4.868 4.868 0 00-1.126-.653l-.253-1.765a.325.325 0 00-.327-.28H7.667a.325.325 0 00-.326.28l-.254 1.765a5.12 5.12 0 00-1.126.653L4.302 4.37a.325.325 0 00-.406.147L2.563 6.82a.329.329 0 00.08.427l1.406 1.099A5.284 5.284 0 004.002 9c0 .22.02.44.047.653l-1.406 1.1c-.127.1-.16.28-.08.426l1.333 2.305c.08.147.26.2.406.147l1.66-.666c.346.266.719.486 1.125.653l.254 1.765c.02.16.16.28.326.28h2.665c.167 0 .307-.12.327-.28l.253-1.765a5.12 5.12 0 001.126-.653l1.66.666c.153.06.326 0 .406-.147l1.333-2.305a.336.336 0 00-.08-.427L13.95 9.653zM9 11.333A2.335 2.335 0 016.668 9 2.335 2.335 0 019 6.668 2.335 2.335 0 0111.332 9 2.335 2.335 0 019 11.332z" fill="#FFF" fill-rule="nonzero"/></g></symbol><symbol id="uiza-volume"><g fill="none" fill-rule="evenodd"><path d="M0 0h18v18H0z"/><path d="M2.25 6.75v4.5h3L9 15V3L5.25 6.75h-3zM12.375 9A3.375 3.375 0 0010.5 5.977v6.038A3.355 3.355 0 0012.375 9zM10.5 2.422v1.545A5.254 5.254 0 0114.25 9a5.254 5.254 0 01-3.75 5.032v1.545A6.747 6.747 0 0015.75 9a6.747 6.747 0 00-5.25-6.578z" fill="#FFF" fill-rule="nonzero"/></g></symbol></svg>